<svg xmlns="http://www.w3.org/2000/svg" viewBox="0 0 1200 620" role="img" aria-label="World map background">
  <defs>
    <linearGradient id="ocean" x1="0" y1="0" x2="0" y2="1">
      <stop offset="0%" stop-color="#f7fbff"/>
      <stop offset="100%" stop-color="#edf4fc"/>
    </linearGradient>
    <linearGradient id="land" x1="0" y1="0" x2="1" y2="1">
      <stop offset="0%" stop-color="#dde7f3"/>
      <stop offset="100%" stop-color="#cfdcec"/>
    </linearGradient>
  </defs>

  <rect width="1200" height="620" fill="url(#ocean)"/>

  <g stroke="#d9e6f3" stroke-width="1" opacity="0.7">
    <path d="M0 155H1200M0 310H1200M0 465H1200"/>
    <path d="M240 0V620M480 0V620M720 0V620M960 0V620"/>
  </g>

  <g fill="url(#land)" stroke="#bfcedf" stroke-width="2">
    <path d="M73 214l74-102 96-46 92 18 59 47-11 91-85 74-79 71-83-18-73-109z"/>
    <path d="M344 395l91 28 36 79-26 94-67 21-44-103 10-119z"/>
    <path d="M579 95l56 7 48 55-7 76-54 39-50-14-32-51 11-62z"/>
    <path d="M562 267l92-20 103 25 73 71-57 66-97 2-78-37-42-51 6-56z"/>
    <path d="M678 181l58-12 59 24 31 46-12 97-36 81-61 16-42-58-9-103z"/>
    <path d="M849 112l123-25 80 48-8 77-63 38-90 3-46-53z"/>
    <path d="M884 256l90-9 115 45 62 98-20 92-71 92-133-28-54-94-11-112z"/>
    <path d="M1059 136l138-11 101 47-9 96-120-29-63-43z"/>
    <path d="M965 98l36-58 50-16 37 19-10 53-37 27-53-6z"/>
    <path d="M1007 500l47 11 21 42-29 32-54-16-14-38z"/>
    <path d="M197 515l41 9 17 38-26 18-38-12-9-26z"/>
  </g>

  <g opacity="0.18">
    <circle cx="265" cy="127" r="92" fill="#7dd3fc"/>
    <circle cx="918" cy="407" r="132" fill="#2563eb"/>
    <circle cx="747" cy="361" r="56" fill="#38bdf8"/>
  </g>
</svg>
